<svg width="159" height="259" viewBox="0 0 159 259" fill="none" xmlns="http://www.w3.org/2000/svg">
<g clip-path="url(#clip0_3892_7306)">
<path fill-rule="evenodd" clip-rule="evenodd" d="M158.891 130.08C158.761 101.08 143.101 75.79 119.831 62.03L153.311 39.47L128.031 28.42L124.771 0L103.181 20.55L74.6108 11.54L78.3008 23.1L87.3508 51.39C84.6308 51.12 81.8708 50.99 79.0808 51C35.2008 51.21 -0.199157 86.94 0.000843299 130.82C0.130843 159.04 14.9608 183.76 37.2008 197.75L5.61084 218.41L30.7308 229.81L33.6008 258.27L55.4708 238.02L83.9109 247.42L80.3808 235.81L72.4008 209.58C74.8408 209.79 77.3108 209.9 79.8108 209.89C123.691 209.69 159.091 173.95 158.891 130.08ZM106.441 34.78L115.161 26.48L116.371 37.05L127.311 41.83L113.171 51.36L98.9708 46.43L93.9908 30.87L106.431 34.79L106.441 34.78ZM35.6208 82.12C47.1208 71.68 62.3708 65.29 79.1408 65.21C95.9108 65.13 111.231 71.38 122.821 81.71C129.531 87.69 134.991 95.03 138.781 103.29C135.551 101.72 131.801 100.34 127.601 99.17C115.111 95.69 98.0108 93.58 79.2708 93.66C60.5308 93.75 43.4508 96.02 30.9908 99.61C26.8108 100.82 23.0708 102.24 19.8508 103.84C23.5608 95.54 28.9608 88.15 35.6108 82.11L35.6208 82.12ZM52.4108 223.74L43.5708 231.92L42.5008 221.34L31.6308 216.41L45.9008 207.08L60.0308 212.21L64.7908 227.84L52.4008 223.74H52.4108ZM34.9508 125.93C26.2708 123.51 20.9008 121.23 20.9008 119.66C20.9008 118.09 26.2408 115.75 34.9008 113.26C46.1508 110.01 61.8608 107.96 79.3508 107.88C96.8408 107.8 112.571 109.7 123.851 112.85C132.531 115.27 137.901 117.55 137.911 119.12C137.911 120.69 132.571 123.02 123.911 125.52C112.661 128.77 96.9508 130.82 79.4608 130.9C61.9708 130.98 46.2508 129.08 34.9608 125.93H34.9508Z" fill="#E5662F"/>
</g>
<defs>
<clipPath id="clip0_3892_7306">
<rect width="158.89" height="258.26" fill="white"/>
</clipPath>
</defs>
</svg>
