<svg width="294" height="116" viewBox="0 0 294 116" fill="none" xmlns="http://www.w3.org/2000/svg">
<g clip-path="url(#clip0_3358_210)">
<path fill-rule="evenodd" clip-rule="evenodd" d="M73.2662 15.8505L71.5784 10.5374L75.7944 11.8759L78.7498 9.0418L79.1599 12.651L82.8642 14.2832L78.0719 17.5373L73.2594 15.8539L73.2662 15.8505ZM44.2383 115.781V105.422H47.9223V103.53H38.4225V105.422H42.1065V115.781H44.2383ZM64.0104 115.781C66.2879 115.781 67.5487 114.368 67.5487 112.476C67.5487 110.97 66.4913 109.666 65.1966 109.464C66.3286 109.225 67.3115 108.198 67.3115 106.654C67.3115 104.927 66.071 103.53 63.8478 103.53H57.866V115.785H64.0104V115.781ZM63.4106 108.597H60.0011V105.418H63.4106C64.5053 105.418 65.1255 106.098 65.1255 107.016C65.1255 107.935 64.5053 108.597 63.4106 108.597ZM63.5021 113.89H60.0011V110.492H63.5021C64.7222 110.492 65.3627 111.264 65.3627 112.183C65.3627 113.248 64.6713 113.89 63.5021 113.89ZM83.4911 116C87.1379 116 89.7102 113.32 89.7102 109.663C89.7102 106.006 87.1379 103.325 83.4911 103.325C79.8445 103.325 77.2721 106.006 77.2721 109.663C77.2721 113.32 79.8445 116 83.4911 116ZM83.4911 114.091C81.0306 114.091 79.4615 112.179 79.4615 109.663C79.4615 107.146 81.0306 105.234 83.4911 105.234C85.9517 105.234 87.5208 107.126 87.5208 109.663C87.5208 112.2 85.9347 114.091 83.4911 114.091ZM101.823 115.781L104.521 111.206H106.636V115.781H108.767V103.527H103.426C101.02 103.527 99.4506 105.107 99.4506 107.365C99.4506 109.622 100.874 110.728 102.331 110.967L99.359 115.781H101.82H101.823ZM103.721 109.314C102.518 109.314 101.643 108.543 101.643 107.368C101.643 106.193 102.518 105.422 103.721 105.422H106.639V109.318H103.721V109.314ZM134.087 115.781L128.78 109.314L133.721 103.527H131.078L126.32 109.369V103.527H124.188V115.781H126.32V111.868L127.377 110.619L131.461 115.781H134.087ZM148.406 116C152.053 116 154.626 113.32 154.626 109.663C154.626 106.006 152.053 103.325 148.406 103.325C144.76 103.325 142.187 106.006 142.187 109.663C142.187 113.32 144.76 116 148.406 116ZM148.406 114.091C145.946 114.091 144.377 112.179 144.377 109.663C144.377 107.146 145.946 105.234 148.406 105.234C150.867 105.234 152.436 107.126 152.436 109.663C152.436 112.2 150.85 114.091 148.406 114.091ZM172.191 115.781V114.569C175.784 114.276 177.973 112.476 177.973 109.663C177.973 106.849 175.784 105.053 172.191 104.759V103.53H170.06V104.78C166.45 105.073 164.281 106.893 164.281 109.666C164.281 112.439 166.45 114.276 170.06 114.573V115.785H172.191V115.781ZM175.784 109.663C175.784 111.298 174.506 112.401 172.191 112.64V106.688C174.506 106.945 175.784 108.047 175.784 109.666V109.663ZM166.464 109.663C166.464 108.047 167.741 106.945 170.056 106.685V112.637C167.741 112.381 166.464 111.278 166.464 109.659V109.663ZM196.502 115.781V113.89H190.303V110.492H196.376V108.601H190.303V105.422H196.502V103.53H188.168V115.785H196.502V115.781ZM208.892 115.781L215.237 107.037V115.781H217.368V103.527H215.179L208.96 112.032V103.527H206.828V115.781H208.889H208.892ZM215.291 101.287L214.417 100.552C213.888 101.307 213.068 101.765 212.102 101.765C211.136 101.765 210.295 101.287 209.767 100.552L208.892 101.287C209.641 102.277 210.807 102.902 212.102 102.902C213.396 102.902 214.562 102.277 215.294 101.287H215.291ZM238.693 115.781V103.527H236.561V108.543H230.234V103.527H228.102V115.781H230.234V110.434H236.561V115.781H238.693ZM251.334 115.781L254.032 111.206H256.147V115.781H258.279V103.527H252.937C250.531 103.527 248.962 105.107 248.962 107.365C248.962 109.622 250.385 110.728 251.843 110.967L248.87 115.781H251.331H251.334ZM253.232 109.314C252.029 109.314 251.155 108.543 251.155 107.368C251.155 106.193 252.029 105.422 253.232 105.422H256.15V109.318H253.232V109.314ZM278.613 55.5039L267.612 28.1464L256.682 55.5039H278.613ZM127.763 19.0602C143.075 19.0602 155.486 31.5643 155.486 46.9914C155.486 62.4185 143.075 74.9226 127.763 74.9226C112.451 74.9226 100.04 62.4185 100.04 46.9914C100.04 31.5643 112.451 19.0602 127.763 19.0602ZM131.193 26.1386V67.8442C141.147 66.195 148.742 57.4878 148.742 46.9914C148.742 36.495 141.147 27.7878 131.193 26.1386ZM124.33 67.8442V26.1386C114.376 27.7878 106.781 36.495 106.781 46.9914C106.781 57.4878 114.376 66.195 124.33 67.8442ZM168.775 25.5513V43.2388H197.518V49.6684H168.775V68.7286H198.078V75.1582H161.99V19.1216H198.078V25.5513H168.775ZM222.374 25.5513H204.92V19.1216H246.691V25.5513H229.237V75.1617H222.374V25.5513ZM281.03 61.9336H254.266L248.982 75.1617H241.296L264.06 19.1216H271.235L294 75.1617H286.313L281.03 61.9336ZM0 19.1353H6.71725V40.1452H10.2419C21.0634 38.0145 26.4894 29.4405 27.5841 19.1148H34.3827C33.9862 21.7338 33.5591 24.6567 32.4407 28.621C29.9429 35.8189 24.6017 41.6749 17.776 44.8163C24.6051 47.9611 29.9429 53.8137 32.4407 61.0117C33.8065 65.7169 34.3624 71.5046 34.8741 74.5914C32.5661 74.5914 30.2581 74.5914 27.9501 74.5948C27.252 62.8077 23.2867 52.045 10.3097 49.4909H6.72064V74.6324H0V19.1353ZM60.0689 72.4573L61.6821 77.7943L57.483 76.3943L54.487 79.1874L54.1244 75.5748L50.4404 73.8914L55.2767 70.7056L60.0655 72.4573H60.0689ZM66.9624 80.5191L64.2579 71.5627C65.0848 71.6344 65.9219 71.672 66.7692 71.6685C81.6407 71.6003 93.6382 59.3966 93.5704 44.4168C93.5264 34.5145 88.219 25.8791 80.3325 21.1806L91.6793 13.4773L83.1116 9.70423L82.0067 0L74.6896 7.01695L65.0069 3.94042L66.2574 7.88767L69.3246 17.5475C68.4028 17.4553 67.4674 17.4109 66.5218 17.4143C51.6503 17.4826 39.6528 29.6863 39.7206 44.6661C39.7646 54.302 44.7907 62.7428 52.3281 67.5198L41.6219 74.5743L50.1354 78.467L51.108 88.1849L58.5201 81.2703L68.1587 84.48L66.9624 80.5157V80.5191ZM46.4514 35.4604C47.5427 34.914 48.8068 34.4292 50.2269 34.016C54.4497 32.7868 60.2383 32.0117 66.5896 31.9843C72.9408 31.9536 78.7362 32.6741 82.9692 33.8658C84.3893 34.2653 85.6636 34.7365 86.7583 35.2726C85.4738 32.4521 83.6233 29.9458 81.3492 27.9039C77.4212 24.3767 72.2291 22.2426 66.5455 22.2699C60.8619 22.2972 55.6901 24.4791 51.796 28.0439C49.5423 30.1063 47.7121 32.6297 46.4548 35.4638L46.4514 35.4604ZM51.5452 38.6701C55.358 37.5603 60.6823 36.8604 66.6099 36.833C72.5375 36.8057 77.8686 37.4545 81.6915 38.5301C84.6333 39.3564 86.4532 40.1349 86.4566 40.671C86.4566 41.2071 84.6468 42.0027 81.7119 42.8564C77.8991 43.9661 72.5748 44.6661 66.6472 44.6934C60.7196 44.7207 55.3919 44.0719 51.5656 42.9963C48.6238 42.17 46.8038 41.3915 46.8005 40.8554C46.8005 40.3193 48.6103 39.5203 51.5452 38.6701Z" fill="#E5662F"/>
</g>
<defs>
<clipPath id="clip0_3358_210">
<rect width="294" height="116" fill="white"/>
</clipPath>
</defs>
</svg>
