<svg width="29" height="47" viewBox="0 0 29 47" fill="none" xmlns="http://www.w3.org/2000/svg">
<path d="M5.32849 28.5L5.19334 30.7458C5.23834 30.7485 5.28343 30.75 5.32849 30.75V28.5ZM2.94349 33.282L1.23076 34.7412C1.24306 34.7556 1.25557 34.77 1.26823 34.7841L2.94349 33.282ZM11.8355 43.2L10.1603 44.7021L10.1636 44.7057L11.8355 43.2ZM14.2205 44.25L14.2391 41.9997L14.2019 42L14.2205 44.25ZM16.6055 43.2L18.2777 44.7057L18.281 44.7018L16.6055 43.2ZM25.4945 33.282L27.17 34.7838C27.1826 34.7697 27.1952 34.7556 27.2072 34.7412L25.4945 33.282ZM23.1095 28.5V30.75C23.1545 30.75 23.1998 30.7485 23.2448 30.7458L23.1095 28.5ZM11.9705 28.5C11.9705 29.7426 12.9779 30.75 14.2205 30.75C15.4631 30.75 16.4705 29.7426 16.4705 28.5H11.9705ZM16.4705 2.25C16.4705 1.00737 15.4631 0 14.2205 0C12.9779 0 11.9705 1.00737 11.9705 2.25H16.4705ZM14.2205 26.25H5.32849V30.75H14.2205V26.25ZM5.46364 26.2542C3.40123 26.13 1.46404 27.2496 0.541867 29.0985L4.56883 31.107C4.68583 30.8724 4.93165 30.7302 5.19334 30.7458L5.46364 26.2542ZM0.541867 29.0985C-0.380273 30.9474 -0.109133 33.1683 1.23076 34.7412L4.65625 31.8228C4.48621 31.6233 4.4518 31.3416 4.56883 31.107L0.541867 29.0985ZM1.26823 34.7841L10.1603 44.7021L13.5107 41.6979L4.61878 31.7799L1.26823 34.7841ZM10.1636 44.7057C11.2025 45.8595 12.6863 46.5129 14.2391 46.5L14.2019 42C13.9373 42.0024 13.6847 41.8911 13.5077 41.6943L10.1636 44.7057ZM14.2019 46.5C15.7547 46.5129 17.2385 45.8595 18.2777 44.7057L14.9336 41.6943C14.7566 41.8911 14.5037 42.0021 14.2391 41.9997L14.2019 46.5ZM18.281 44.7018L27.17 34.7838L23.819 31.7802L14.93 41.6982L18.281 44.7018ZM27.2072 34.7412C28.5473 33.1683 28.8182 30.9474 27.8963 29.0985L23.8691 31.107C23.9861 31.3416 23.9519 31.6233 23.7818 31.8228L27.2072 34.7412ZM27.8963 29.0985C26.9741 27.2496 25.0367 26.13 22.9745 26.2542L23.2448 30.7458C23.5064 30.7302 23.7521 30.8724 23.8691 31.107L27.8963 29.0985ZM23.1095 26.25H14.2205V30.75H23.1095V26.25ZM16.4705 28.5V2.25H11.9705V28.5H16.4705Z" fill="#506DC4"/>
</svg>
